<svg viewBox="0 0 1611 254" style="enable-background:new 0 0 1611 254;" fill="none" xmlns="http://www.w3.org/2000/svg">
<g clip-path="url(#clip0_1_3)">
<path d="M858.6 166.7C853.5 168.7 848 170.1 842.2 170.7C815 173.5 791.4 154.2 791.2 126.8C791.1 102.1 811 82.1 835.7 82.1C843.9 82.1 851.7 83.7 858.7 86.4C866.2 89.4 874.8 87.5 880.5 81.7L914.9 47.3C920.7 41.5 920.1 31.8 913.5 26.8C891.5 9.50002 863.6 -0.499983 833.3 1.72704e-05C764.5 1.30002 708.9 58.2 709.1 127C709.4 196.7 765.9 253.1 835.7 253.1C865.1 253.1 892.2 243.1 913.7 226.2C920.2 221.1 920.8 211.5 914.9 205.7L880.5 171.3C874.7 165.6 866.1 163.7 858.6 166.7Z" fill="#FFB000"/>
<path d="M382 166.7C376.9 168.7 371.4 170.1 365.6 170.7C338.4 173.5 314.8 154.2 314.6 126.8C314.5 102.1 334.4 82.1 359.1 82.1C367.3 82.1 375.1 83.7 382.1 86.4C389.6 89.4 398.2 87.5 403.9 81.7L438.3 47.3C444.2 41.5 443.5 31.8 436.9 26.8C414.9 9.50002 387 -0.499983 356.7 1.72704e-05C288 1.30002 232.3 58.3 232.6 127C232.9 196.7 289.4 253.1 359.2 253.1C388.6 253.1 415.7 243.1 437.2 226.2C443.7 221.1 444.3 211.5 438.4 205.7L404 171.3C398.2 165.6 389.6 163.7 382 166.7Z" fill="#FFB000"/>
<path d="M579.2 3.40002H490.2C482.7 3.40002 476.6 9.50003 476.6 17.1V236C476.6 243.6 482.7 249.7 490.3 249.7H548.4C556 249.7 562.1 243.6 562.1 236V215.5C562.1 211.7 565.2 208.7 568.9 208.7H579.2C635.9 208.7 681.8 162.8 681.8 106.1C681.8 49.4 635.8 3.40002 579.2 3.40002Z" fill="#FFB000"/>
<path d="M200.5 6.79999L0 149C0 205.4 44.9 252.4 101.2 253.1C158.5 253.8 205.2 207.6 205.2 150.5V17.1C205.2 13 203.4 9.29999 200.5 6.79999Z" fill="#FFB000"/>
<path d="M13.7 3.40002C6.1 3.40002 0 9.50003 0 17.1V149L102.6 3.40002H13.7Z" fill="#FFB000"/>
<path d="M981.136 188V152.72L1050.69 89.72C1055.06 85.52 1058.58 81.236 1061.27 76.868C1063.96 72.5 1065.3 67.628 1065.3 62.252C1065.3 55.868 1063.29 50.744 1059.26 46.88C1055.22 42.848 1049.85 40.832 1043.13 40.832C1036.07 40.832 1030.28 43.352 1025.74 48.392C1021.37 53.264 1018.77 59.732 1017.93 67.796L977.356 62.252C978.364 53.18 980.8 45.116 984.664 38.06C988.696 31.004 993.736 25.04 999.784 20.168C1005.83 15.128 1012.72 11.348 1020.45 8.82799C1028.34 6.13999 1036.66 4.79599 1045.4 4.79599C1053.63 4.79599 1061.61 5.88799 1069.34 8.07199C1077.06 10.256 1083.95 13.616 1090 18.152C1096.05 22.688 1100.84 28.4 1104.36 35.288C1108.06 42.176 1109.91 50.24 1109.91 59.48C1109.91 65.864 1109.07 71.66 1107.39 76.868C1105.71 81.908 1103.36 86.612 1100.33 90.98C1097.48 95.348 1094.12 99.464 1090.25 103.328C1086.56 107.024 1082.69 110.72 1078.66 114.416L1037.33 151.208H1110.16V188H981.136ZM1278.11 98.288C1278.11 110.888 1276.85 122.9 1274.33 134.324C1271.81 145.748 1267.78 155.828 1262.24 164.564C1256.69 173.132 1249.47 180.02 1240.57 185.228C1231.83 190.268 1221.16 192.788 1208.56 192.788C1195.96 192.788 1185.21 190.268 1176.31 185.228C1167.4 180.02 1160.09 173.132 1154.38 164.564C1148.84 155.828 1144.81 145.748 1142.29 134.324C1139.77 122.9 1138.51 110.888 1138.51 98.288C1138.51 85.688 1139.77 73.76 1142.29 62.504C1144.81 51.08 1148.84 41.168 1154.38 32.768C1160.09 24.2 1167.4 17.396 1176.31 12.356C1185.21 7.31599 1195.96 4.79599 1208.56 4.79599C1221.16 4.79599 1231.83 7.31599 1240.57 12.356C1249.47 17.396 1256.69 24.2 1262.24 32.768C1267.78 41.168 1271.81 51.08 1274.33 62.504C1276.85 73.76 1278.11 85.688 1278.11 98.288ZM1234.77 98.288C1234.77 92.744 1234.43 86.612 1233.76 79.892C1233.09 73.172 1231.83 66.956 1229.98 61.244C1228.13 55.364 1225.45 50.492 1221.92 46.628C1218.56 42.596 1214.11 40.58 1208.56 40.58C1203.02 40.58 1198.48 42.596 1194.95 46.628C1191.43 50.492 1188.65 55.364 1186.64 61.244C1184.79 66.956 1183.53 73.172 1182.86 79.892C1182.19 86.612 1181.85 92.744 1181.85 98.288C1181.85 104 1182.19 110.3 1182.86 117.188C1183.53 123.908 1184.79 130.208 1186.64 136.088C1188.65 141.8 1191.43 146.672 1194.95 150.704C1198.48 154.568 1203.02 156.5 1208.56 156.5C1214.11 156.5 1218.56 154.568 1221.92 150.704C1225.45 146.672 1228.13 141.8 1229.98 136.088C1231.83 130.208 1233.09 123.908 1233.76 117.188C1234.43 110.3 1234.77 104 1234.77 98.288ZM1306.96 188V152.72L1376.52 89.72C1380.88 85.52 1384.41 81.236 1387.1 76.868C1389.79 72.5 1391.13 67.628 1391.13 62.252C1391.13 55.868 1389.12 50.744 1385.08 46.88C1381.05 42.848 1375.68 40.832 1368.96 40.832C1361.9 40.832 1356.1 43.352 1351.57 48.392C1347.2 53.264 1344.6 59.732 1343.76 67.796L1303.18 62.252C1304.19 53.18 1306.63 45.116 1310.49 38.06C1314.52 31.004 1319.56 25.04 1325.61 20.168C1331.66 15.128 1338.55 11.348 1346.28 8.82799C1354.17 6.13999 1362.49 4.79599 1371.22 4.79599C1379.46 4.79599 1387.44 5.88799 1395.16 8.07199C1402.89 10.256 1409.78 13.616 1415.83 18.152C1421.88 22.688 1426.66 28.4 1430.19 35.288C1433.89 42.176 1435.74 50.24 1435.74 59.48C1435.74 65.864 1434.9 71.66 1433.22 76.868C1431.54 81.908 1429.18 86.612 1426.16 90.98C1423.3 95.348 1419.94 99.464 1416.08 103.328C1412.38 107.024 1408.52 110.72 1404.49 114.416L1363.16 151.208H1435.99V188H1306.96ZM1599.41 129.032C1599.41 139.952 1597.47 149.444 1593.61 157.508C1589.75 165.404 1584.54 171.956 1577.99 177.164C1571.6 182.372 1564.29 186.236 1556.06 188.756C1547.83 191.444 1539.35 192.788 1530.61 192.788C1522.55 192.788 1514.82 191.696 1507.43 189.512C1500.2 187.496 1493.57 184.556 1487.52 180.692C1481.64 176.828 1476.51 172.124 1472.15 166.58C1467.95 160.868 1464.84 154.484 1462.82 147.428L1501.38 135.584C1503.23 141.8 1506.67 146.924 1511.71 150.956C1516.92 154.988 1523.05 157.004 1530.11 157.004C1537.33 157.004 1543.55 154.82 1548.75 150.452C1554.13 146.084 1556.82 139.616 1556.82 131.048C1556.82 125.84 1555.73 121.472 1553.54 117.944C1551.36 114.416 1548.5 111.644 1544.97 109.628C1541.61 107.444 1537.75 105.932 1533.38 105.092C1529.01 104.252 1524.65 103.832 1520.28 103.832C1513.89 103.832 1506.59 104.588 1498.35 106.1C1490.29 107.444 1483.07 109.292 1476.68 111.644L1480.97 9.584H1590.33V45.872H1518.51L1517 74.096C1519.69 73.424 1522.63 73.004 1525.82 72.836C1529.18 72.5 1532.21 72.332 1534.89 72.332C1543.8 72.332 1552.2 73.508 1560.09 75.86C1567.99 78.212 1574.79 81.824 1580.51 86.696C1586.39 91.4 1591.01 97.28 1594.37 104.336C1597.73 111.392 1599.41 119.624 1599.41 129.032Z" fill="#001927"/>
</g>
<defs>
<clipPath id="clip0_1_3">
<rect width="1610.7" height="253.1" fill="white"/>
</clipPath>
</defs>
</svg>
