<svg
  width="300"
  height="47"
  viewBox="0 47 1614 255"
  preserveAspectRatio="xMidYMid meet"
  fill="none"
  xmlns="http://www.w3.org/2000/svg">
<mask id="mask0_17_2" style="mask-type:luminance" maskUnits="userSpaceOnUse" x="0" y="47" width="1614" height="255">
<path d="M1614 47.4824H0V301.101H1614V47.4824Z" fill="white"/>
</mask>
<g mask="url(#mask0_17_2)">
<path d="M860.359 214.524C855.249 216.528 849.737 217.931 843.926 218.532C816.67 221.338 793.021 201.999 792.821 174.542C792.721 149.792 812.662 129.751 837.412 129.751C845.629 129.751 853.445 131.354 860.459 134.06C867.975 137.066 876.592 135.162 882.304 129.35L916.774 94.8796C922.586 89.0677 921.985 79.3478 915.372 74.3376C893.327 57.0021 865.369 46.9816 835.007 47.4827C766.066 48.7853 710.352 105.802 710.553 174.743C710.853 244.586 767.469 301.101 837.412 301.101C866.872 301.101 894.028 291.081 915.572 274.146C922.085 269.036 922.687 259.416 916.774 253.604L882.304 219.134C876.492 213.422 867.874 211.518 860.359 214.524Z" fill="#FFB000"/>
<path d="M382.783 214.524C377.672 216.528 372.161 217.931 366.349 218.532C339.093 221.338 315.445 201.999 315.245 174.542C315.144 149.792 335.085 129.751 359.836 129.751C368.053 129.751 375.869 131.354 382.883 134.06C390.398 137.066 399.016 135.162 404.728 129.35L439.198 94.8796C445.11 89.0677 444.409 79.3478 437.795 74.3376C415.75 57.0021 387.793 46.9816 357.431 47.4827C288.59 48.7853 232.776 105.902 233.077 174.743C233.377 244.586 289.993 301.101 359.936 301.101C389.396 301.101 416.552 291.081 438.096 274.146C444.609 269.036 445.21 259.416 439.298 253.604L404.828 219.134C399.016 213.422 390.398 211.518 382.783 214.524Z" fill="#FFB000"/>
<path d="M580.387 50.8896H491.204C483.689 50.8896 477.576 57.0022 477.576 64.6177V283.966C477.576 291.582 483.689 297.694 491.304 297.694H549.524C557.139 297.694 563.252 291.582 563.252 283.966V263.424C563.252 259.616 566.358 256.61 570.066 256.61H580.387C637.203 256.61 683.197 210.616 683.197 153.8C683.197 96.9839 637.103 50.8896 580.387 50.8896Z" fill="#FFB000"/>
<path d="M200.911 54.297L0 196.788C0 253.304 44.992 300.4 101.407 301.102C158.825 301.803 205.62 255.508 205.62 198.291V64.6181C205.62 60.5097 203.817 56.8021 200.911 54.297Z" fill="#FFB000"/>
<path d="M13.7281 50.8896C6.1125 50.8896 0 57.0022 0 64.6177V196.788L102.81 50.8896H13.7281Z" fill="#FFB000"/>
</g>
<path d="M981.869 232V201.659L1045.53 145.92C1050.31 141.602 1054.37 137.653 1057.72 134.074C1061.07 130.437 1063.63 126.801 1065.39 123.165C1067.15 119.472 1068.03 115.466 1068.03 111.148C1068.03 106.318 1066.98 102.199 1064.88 98.7898C1062.78 95.3239 1059.88 92.6534 1056.19 90.7784C1052.49 88.9034 1048.26 87.9659 1043.49 87.9659C1038.66 87.9659 1034.43 88.9602 1030.79 90.9489C1027.15 92.8807 1024.31 95.6932 1022.27 99.3864C1020.28 103.08 1019.28 107.568 1019.28 112.852H979.312C979.312 100.977 981.983 90.7216 987.324 82.0852C992.665 73.4489 1000.16 66.8011 1009.82 62.142C1019.54 57.4261 1030.82 55.0682 1043.66 55.0682C1056.9 55.0682 1068.4 57.2841 1078.18 61.7159C1087.95 66.1477 1095.51 72.3409 1100.85 80.2954C1106.24 88.1932 1108.94 97.3693 1108.94 107.824C1108.94 114.472 1107.61 121.062 1104.94 127.597C1102.27 134.131 1097.47 141.347 1090.53 149.244C1083.66 157.142 1073.89 166.602 1061.22 177.625L1040.34 196.886V197.994H1111.07V232H981.869ZM1207.1 236.261C1191.88 236.261 1178.75 232.653 1167.73 225.438C1156.71 218.165 1148.21 207.739 1142.25 194.159C1136.28 180.523 1133.33 164.131 1133.38 144.983C1133.44 125.835 1136.42 109.585 1142.33 96.2329C1148.3 82.8239 1156.76 72.625 1167.73 65.6364C1178.75 58.5909 1191.88 55.0682 1207.1 55.0682C1222.33 55.0682 1235.46 58.5909 1246.48 65.6364C1257.56 72.625 1266.08 82.8239 1272.05 96.2329C1278.01 109.642 1280.97 125.892 1280.91 144.983C1280.91 164.187 1277.93 180.608 1271.96 194.244C1266 207.881 1257.5 218.307 1246.48 225.523C1235.51 232.682 1222.39 236.261 1207.1 236.261ZM1207.1 201.744C1216.19 201.744 1223.55 197.114 1229.18 187.852C1234.8 178.534 1237.59 164.244 1237.53 144.983C1237.53 132.369 1236.25 121.972 1233.69 113.79C1231.14 105.551 1227.59 99.4148 1223.04 95.3807C1218.5 91.3466 1213.18 89.3295 1207.1 89.3295C1198.07 89.3295 1190.77 93.9034 1185.2 103.051C1179.63 112.142 1176.82 126.119 1176.76 144.983C1176.71 157.767 1177.93 168.364 1180.43 176.773C1182.98 185.182 1186.56 191.46 1191.17 195.608C1195.77 199.699 1201.08 201.744 1207.1 201.744ZM1305.07 232V201.659L1368.74 145.92C1373.51 141.602 1377.57 137.653 1380.92 134.074C1384.28 130.437 1386.83 126.801 1388.6 123.165C1390.36 119.472 1391.24 115.466 1391.24 111.148C1391.24 106.318 1390.19 102.199 1388.08 98.7898C1385.98 95.3239 1383.08 92.6534 1379.39 90.7784C1375.7 88.9034 1371.46 87.9659 1366.69 87.9659C1361.86 87.9659 1357.63 88.9602 1353.99 90.9489C1350.36 92.8807 1347.52 95.6932 1345.47 99.3864C1343.48 103.08 1342.49 107.568 1342.49 112.852H1302.52C1302.52 100.977 1305.19 90.7216 1310.53 82.0852C1315.87 73.4489 1323.37 66.8011 1333.03 62.142C1342.74 57.4261 1354.02 55.0682 1366.86 55.0682C1380.1 55.0682 1391.61 57.2841 1401.38 61.7159C1411.15 66.1477 1418.71 72.3409 1424.05 80.2954C1429.45 88.1932 1432.15 97.3693 1432.15 107.824C1432.15 114.472 1430.81 121.062 1428.14 127.597C1425.47 134.131 1420.67 141.347 1413.74 149.244C1406.86 157.142 1397.09 166.602 1384.42 177.625L1363.54 196.886V197.994H1434.28V232H1305.07ZM1528.09 234.386C1518.55 234.386 1509.4 232.852 1500.65 229.784C1491.9 226.659 1484.11 221.716 1477.3 214.955C1470.48 208.136 1465.11 199.216 1461.19 188.193C1457.27 177.114 1455.34 163.619 1455.39 147.71C1455.45 133.335 1457.21 120.437 1460.68 109.017C1464.14 97.5398 1469.09 87.7955 1475.51 79.7841C1481.98 71.7727 1489.71 65.6648 1498.69 61.4602C1507.72 57.1989 1517.81 55.0682 1528.94 55.0682C1541.16 55.0682 1551.93 57.4545 1561.24 62.2273C1570.62 66.9432 1578.12 73.3068 1583.74 81.3182C1589.37 89.2727 1592.69 98.1364 1593.72 107.909H1552.21C1550.96 102.398 1548.2 98.2216 1543.94 95.3807C1539.74 92.4829 1534.74 91.0341 1528.94 91.0341C1518.26 91.0341 1510.28 95.6648 1504.99 104.926C1499.77 114.187 1497.1 126.574 1496.98 142.085H1498.09C1500.48 136.858 1503.91 132.369 1508.4 128.619C1512.89 124.869 1518.03 122 1523.83 120.011C1529.68 117.966 1535.88 116.943 1542.41 116.943C1552.86 116.943 1562.1 119.358 1570.11 124.188C1578.12 129.017 1584.4 135.636 1588.94 144.045C1593.49 152.398 1595.73 161.972 1595.68 172.767C1595.73 184.926 1592.89 195.665 1587.15 204.983C1581.41 214.244 1573.46 221.46 1563.29 226.631C1553.18 231.801 1541.44 234.386 1528.09 234.386ZM1527.84 202C1533.01 202 1537.64 200.778 1541.73 198.335C1545.82 195.892 1549.03 192.568 1551.36 188.364C1553.69 184.159 1554.82 179.415 1554.77 174.131C1554.82 168.79 1553.69 164.045 1551.36 159.898C1549.09 155.75 1545.9 152.455 1541.81 150.011C1537.78 147.568 1533.15 146.347 1527.92 146.347C1524.11 146.347 1520.56 147.057 1517.27 148.477C1513.97 149.898 1511.1 151.886 1508.66 154.443C1506.27 156.943 1504.4 159.898 1503.03 163.307C1501.67 166.659 1500.96 170.295 1500.9 174.216C1500.96 179.386 1502.15 184.074 1504.48 188.278C1506.81 192.483 1509.99 195.835 1514.03 198.335C1518.06 200.778 1522.66 202 1527.84 202Z" fill="#001927"/>
</svg>
