<?xml version="1.0" encoding="utf-8"?>
<!-- Generator: Adobe Illustrator 28.1.0, SVG Export Plug-In . SVG Version: 6.00 Build 0)  -->
<svg version="1.1" id="_레이어_2" xmlns="http://www.w3.org/2000/svg" xmlns:xlink="http://www.w3.org/1999/xlink" x="0px"
	 y="0px" viewBox="0 0 1610.7 253.1" style="enable-background:new 0 0 1610.7 253.1;" xml:space="preserve">
<style type="text/css">
	.st0{fill:#001927;}
	.st1{fill:#FFB000;}
</style>
<g id="_레이어_1-2">
	<path class="st0" d="M979.9,188.4v-35.4l69.9-63.2c4.4-4.2,7.9-8.5,10.6-12.9c2.7-4.4,4-9.3,4-14.7c0-6.4-2-11.6-6.1-15.5
		c-4.1-4-9.5-5.9-16.2-5.9c-7.1,0-12.9,2.5-17.3,7.5c-4.5,5-7.1,11.5-8,19.6l-40.8-5.6c1-9.1,3.5-17.2,7.5-24.3
		c4-7.1,9-13.2,15.1-18.2s13-8.8,20.9-11.5c7.8-2.6,16.2-4,24.9-4c8.3,0,16.3,1.1,24,3.3c7.8,2.2,14.7,5.6,20.8,10.1
		c6.1,4.6,10.9,10.3,14.6,17.2c3.6,6.9,5.4,15,5.4,24.3c0,6.4-0.8,12.2-2.5,17.3c-1.7,5.1-4,9.9-7,14.3c-3,4.4-6.3,8.5-10.1,12.3
		s-7.7,7.6-11.8,11.3l-41.5,37h73.1v37L979.9,188.4L979.9,188.4z"/>
	<path class="st0" d="M1278.1,98.3c0,12.7-1.3,24.7-3.8,36.2c-2.5,11.5-6.6,21.6-12.2,30.2c-5.6,8.7-12.8,15.6-21.6,20.8
		c-8.9,5.1-19.6,7.7-32.3,7.7s-23.5-2.6-32.4-7.7c-8.9-5.1-16.2-12.1-21.9-20.8c-5.7-8.7-9.7-18.8-12.3-30.2
		c-2.5-11.5-3.8-23.5-3.8-36.2s1.3-24.7,3.8-36.1c2.5-11.4,6.6-21.3,12.3-29.9c5.7-8.5,12.9-15.3,21.9-20.4
		c8.9-5.1,19.7-7.6,32.4-7.6s23.4,2.5,32.3,7.6c8.9,5.1,16.1,11.9,21.6,20.4c5.6,8.5,9.6,18.5,12.2,29.9
		C1276.8,73.7,1278.1,85.7,1278.1,98.3z M1234.5,98.3c0-5.6-0.3-11.7-1-18.5c-0.7-6.7-1.9-13-3.8-18.9c-1.9-5.8-4.5-10.7-8-14.7
		c-3.5-4-8-6-13.5-6s-10.1,2-13.7,6c-3.5,4-6.3,8.9-8.2,14.7c-1.9,5.8-3.3,12.1-3.9,18.9c-0.7,6.8-1,12.9-1,18.5
		c0,5.7,0.3,12,1,18.9c0.7,6.8,2,13.2,3.9,19c1.9,5.8,4.7,10.7,8.2,14.7c3.5,4,8.1,5.9,13.7,5.9s10.1-2,13.5-5.9
		c3.5-4,6.1-8.9,8-14.7c1.9-5.8,3.1-12.2,3.8-19C1234.2,110.4,1234.5,104.1,1234.5,98.3z"/>
	<path class="st0" d="M1306.9,188.4v-35.4l69.9-63.2c4.4-4.2,7.9-8.5,10.6-12.9c2.7-4.4,4-9.3,4-14.7c0-6.4-2-11.6-6.1-15.5
		c-4.1-4-9.5-5.9-16.2-5.9c-7.1,0-12.9,2.5-17.3,7.5c-4.5,5-7.1,11.5-8,19.6l-40.8-5.6c1-9.1,3.5-17.2,7.5-24.3
		c4-7.1,9-13.2,15.1-18.2s13-8.8,20.9-11.5c7.8-2.6,16.2-4,24.9-4c8.3,0,16.3,1.1,24,3.3c7.8,2.2,14.7,5.6,20.8,10.1
		c6.1,4.6,10.9,10.3,14.6,17.2c3.6,6.9,5.4,15,5.4,24.3c0,6.4-0.8,12.2-2.5,17.3c-1.7,5.1-4,9.9-7,14.3c-3,4.4-6.3,8.5-10.1,12.3
		s-7.7,7.6-11.8,11.3l-41.5,37h73.1v37L1306.9,188.4L1306.9,188.4z"/>
	<path class="st1" d="M858.6,166.7c-5.1,2-10.6,3.4-16.4,4c-27.2,2.8-50.8-16.5-51-43.9c-0.1-24.7,19.8-44.7,44.5-44.7
		c8.2,0,16,1.6,23,4.3c7.5,3,16.1,1.1,21.8-4.7l34.4-34.4c5.8-5.8,5.2-15.5-1.4-20.5C891.5,9.5,863.6-0.5,833.3,0
		c-68.8,1.3-124.4,58.2-124.2,127c0.3,69.7,56.8,126.1,126.6,126.1c29.4,0,56.5-10,78-26.9c6.5-5.1,7.1-14.7,1.2-20.5l-34.4-34.4
		C874.7,165.6,866.1,163.7,858.6,166.7L858.6,166.7z"/>
	<path class="st1" d="M382,166.7c-5.1,2-10.6,3.4-16.4,4c-27.2,2.8-50.8-16.5-51-43.9c-0.1-24.7,19.8-44.7,44.5-44.7
		c8.2,0,16,1.6,23,4.3c7.5,3,16.1,1.1,21.8-4.7l34.4-34.4c5.9-5.8,5.2-15.5-1.4-20.5C414.9,9.5,387-0.5,356.7,0
		C288,1.3,232.3,58.3,232.6,127c0.3,69.7,56.8,126.1,126.6,126.1c29.4,0,56.5-10,78-26.9c6.5-5.1,7.1-14.7,1.2-20.5l-34.4-34.4
		C398.2,165.6,389.6,163.7,382,166.7L382,166.7z"/>
	<path class="st1" d="M579.2,3.4h-89c-7.5,0-13.6,6.1-13.6,13.7V236c0,7.6,6.1,13.7,13.7,13.7v0h58.1c7.6,0,13.7-6.1,13.7-13.7
		v-20.5c0-3.8,3.1-6.8,6.8-6.8h10.3c56.7,0,102.6-45.9,102.6-102.6S635.8,3.4,579.2,3.4z"/>
	<path class="st1" d="M200.5,6.8L0,149c0,56.4,44.9,103.4,101.2,104.1c57.3,0.7,104-45.5,104-102.6V17.1
		C205.2,13,203.4,9.3,200.5,6.8z"/>
	<path class="st1" d="M13.7,3.4C6.1,3.4,0,9.5,0,17.1V149L102.6,3.4H13.7z"/>
	<g>
		<path class="st0" d="M1585.8,154.7V190h-40.2v-35.3h-85.2v-36.1l73.7-109.8h51.5v111.1h25.1v34.8H1585.8z M1545.9,52.8h-0.8
			l-43,67.1h43.8V52.8z"/>
	</g>
</g>
</svg>
